<svg width="1080" height="1080" viewBox="0 0 1080 1080" fill="none" xmlns="http://www.w3.org/2000/svg">
<g clip-path="url(#clip0_108_2)">
<rect width="1080" height="1080" rx="540" fill="#6DA544"/>
<g clip-path="url(#clip1_108_2)">
<path d="M540 1080C838.234 1080 1080 838.234 1080 540C1080 241.766 838.234 0 540 0C241.766 0 0 241.766 0 540C0 838.234 241.766 1080 540 1080Z" fill="#6DA544"/>
<path d="M540 211.304L986.086 540L540 868.695L93.9136 540L540 211.304Z" fill="#FFDA44"/>
<path d="M540 727.825C643.733 727.825 727.825 643.733 727.825 540C727.825 436.267 643.733 352.175 540 352.175C436.267 352.175 352.175 436.267 352.175 540C352.175 643.733 436.267 727.825 540 727.825Z" fill="#F0F0F0"/>
<path d="M446.086 528.261C413.425 528.261 381.904 533.229 352.234 542.447C353.548 645.047 437.088 727.827 540 727.827C603.636 727.827 659.838 696.151 693.814 647.738C635.685 574.971 546.246 528.261 446.086 528.261Z" fill="#0052B4"/>
<path d="M724.345 575.986C726.606 564.334 727.827 552.312 727.827 540C727.827 436.265 643.735 352.175 540.002 352.175C462.601 352.175 396.155 399.005 367.4 465.868C392.818 460.601 419.135 457.827 446.091 457.827C555.181 457.825 653.87 503.172 724.345 575.986Z" fill="#0052B4"/>
</g>
</g>
<defs>
<clipPath id="clip0_108_2">
<rect width="1080" height="1080" rx="540" fill="white"/>
</clipPath>
<clipPath id="clip1_108_2">
<rect width="1080" height="1080" fill="white"/>
</clipPath>
</defs>
</svg>
