<svg width="25" height="25" viewBox="0 0 25 25" fill="none" xmlns="http://www.w3.org/2000/svg">
<g clip-path="url(#clip0_11_59)">
<path d="M22.3958 21.875H2.60417C1.16875 21.875 0 20.7062 0 19.2708V5.72917C0 4.29375 1.16875 3.125 2.60417 3.125H22.3958C23.8312 3.125 25 4.29375 25 5.72917V19.2708C25 20.7062 23.8312 21.875 22.3958 21.875ZM2.60417 4.16667C1.74271 4.16667 1.04167 4.86771 1.04167 5.72917V19.2708C1.04167 20.1323 1.74271 20.8333 2.60417 20.8333H22.3958C23.2573 20.8333 23.9583 20.1323 23.9583 19.2708V5.72917C23.9583 4.86771 23.2573 4.16667 22.3958 4.16667H2.60417Z" fill="#6D6D6D"/>
<path d="M7.81242 12.5001C6.377 12.5001 5.20825 11.3313 5.20825 9.89592C5.20825 8.4605 6.377 7.29175 7.81242 7.29175C9.24784 7.29175 10.4166 8.4605 10.4166 9.89592C10.4166 11.3313 9.24784 12.5001 7.81242 12.5001ZM7.81242 8.33341C6.95096 8.33341 6.24992 9.03446 6.24992 9.89592C6.24992 10.7574 6.95096 11.4584 7.81242 11.4584C8.67388 11.4584 9.37492 10.7574 9.37492 9.89592C9.37492 9.03446 8.67388 8.33341 7.81242 8.33341Z" fill="#6D6D6D"/>
<path d="M11.9792 17.7084C11.6917 17.7084 11.4583 17.4751 11.4583 17.1876V16.1459C11.4583 15.2845 10.7573 14.5834 9.89583 14.5834H5.72917C4.86771 14.5834 4.16667 15.2845 4.16667 16.1459V17.1876C4.16667 17.4751 3.93333 17.7084 3.64583 17.7084C3.35833 17.7084 3.125 17.4751 3.125 17.1876V16.1459C3.125 14.7105 4.29375 13.5417 5.72917 13.5417H9.89583C11.3312 13.5417 12.5 14.7105 12.5 16.1459V17.1876C12.5 17.4751 12.2667 17.7084 11.9792 17.7084Z" fill="#6D6D6D"/>
<path d="M21.3541 9.37492H15.1041C14.8166 9.37492 14.5833 9.14159 14.5833 8.85409C14.5833 8.56659 14.8166 8.33325 15.1041 8.33325H21.3541C21.6416 8.33325 21.8749 8.56659 21.8749 8.85409C21.8749 9.14159 21.6416 9.37492 21.3541 9.37492Z" fill="#6D6D6D"/>
<path d="M21.3541 13.5417H15.1041C14.8166 13.5417 14.5833 13.3083 14.5833 13.0208C14.5833 12.7333 14.8166 12.5 15.1041 12.5H21.3541C21.6416 12.5 21.8749 12.7333 21.8749 13.0208C21.8749 13.3083 21.6416 13.5417 21.3541 13.5417Z" fill="#6D6D6D"/>
<path d="M21.3541 17.7084H15.1041C14.8166 17.7084 14.5833 17.4751 14.5833 17.1876C14.5833 16.9001 14.8166 16.6667 15.1041 16.6667H21.3541C21.6416 16.6667 21.8749 16.9001 21.8749 17.1876C21.8749 17.4751 21.6416 17.7084 21.3541 17.7084Z" fill="#6D6D6D"/>
</g>
<defs>
<clipPath id="clip0_11_59">
<rect width="25" height="25" fill="white"/>
</clipPath>
</defs>
</svg>
