<svg width="25" height="25" viewBox="0 0 25 25" fill="none" xmlns="http://www.w3.org/2000/svg">
<g clip-path="url(#clip0_11_98)">
<path d="M3.77772 25H21.2222C23.0509 25 24.537 23.5139 24.537 21.6852V5.16664C24.537 3.33794 23.0509 1.85182 21.2222 1.85182H19.9074V0.925909C19.9074 0.416643 19.4906 0 18.9814 0C18.4721 0 18.0555 0.416643 18.0555 0.925909V1.85182H6.94441V0.925909C6.94441 0.416643 6.52769 0 6.01842 0C5.50916 0 5.09251 0.416643 5.09251 0.925909V1.85182H3.77772C1.94901 1.85182 0.462891 3.33794 0.462891 5.16664V21.6852C0.462891 23.5139 1.94901 25 3.77772 25ZM2.31479 5.16664C2.31479 4.36111 2.97218 3.70371 3.77772 3.70371H5.09251V4.62962C5.09251 5.13889 5.50916 5.55553 6.01842 5.55553C6.52769 5.55553 6.94433 5.13889 6.94433 4.62962V3.70371H18.0555V4.62962C18.0555 5.13889 18.4721 5.55553 18.9814 5.55553C19.4906 5.55553 19.9073 5.13889 19.9073 4.62962V3.70371H21.2221C22.0276 3.70371 22.685 4.36111 22.685 5.16664V7.87038H2.31479V5.16664ZM2.31479 9.7222H22.6852V21.6852C22.6852 22.4907 22.0278 23.1481 21.2222 23.1481H3.77772C2.97218 23.1481 2.31479 22.4907 2.31479 21.6852V9.7222Z" fill="#6D6D6D"/>
</g>
<defs>
<clipPath id="clip0_11_98">
<rect width="25" height="25" fill="white"/>
</clipPath>
</defs>
</svg>
