<svg width="25" height="25" viewBox="0 0 25 25" fill="none" xmlns="http://www.w3.org/2000/svg">
<path d="M12.5001 13.2812C9.198 13.2812 6.5105 10.5937 6.5105 7.29159C6.5105 3.9895 9.198 1.302 12.5001 1.302C15.8022 1.302 18.4897 3.9895 18.4897 7.29159C18.4897 10.5937 15.8022 13.2812 12.5001 13.2812ZM12.5001 2.8645C10.0626 2.8645 8.073 4.85409 8.073 7.29159C8.073 9.72909 10.0626 11.7187 12.5001 11.7187C14.9376 11.7187 16.9272 9.72909 16.9272 7.29159C16.9272 4.85409 14.9376 2.8645 12.5001 2.8645Z" fill="#6D6D6D"/>
<path d="M21.448 23.6979C21.0209 23.6979 20.6668 23.3438 20.6668 22.9167C20.6668 19.3229 17.0002 16.4063 12.5002 16.4063C8.00015 16.4063 4.3335 19.3229 4.3335 22.9167C4.3335 23.3438 3.97933 23.6979 3.55225 23.6979C3.12516 23.6979 2.771 23.3438 2.771 22.9167C2.771 18.4688 7.13557 14.8438 12.5002 14.8438C17.8648 14.8438 22.2293 18.4688 22.2293 22.9167C22.2293 23.3438 21.8751 23.6979 21.448 23.6979Z" fill="#6D6D6D"/>
</svg>
